# xmcd
#
# Track frame offsets: 
#        150
#        18210
#        30441
#        52346
#        67106
#        91883
#        108217
#        123371
#        137376
#        149446
#        174581
#        187783
#        205801
#
# Disc length: 2846 seconds
#
# Revision: 2
# Processed by: cddbd v1.5.2PL0 Copyright (c) Steve Scherf et al.
# Submitted via: ExactAudioCopy v1.2
#
DISCID=ad0b1c0d
DTITLE=Memphis Slim and Willie Dixon - Jazz In Paris - Aux Trois Maillet
DTITLE=z
DYEAR=1962
DGENRE=Jazz
TTITLE0=Rock and rolling the house
TTITLE1=Baby plase come home
TTITLE2=How make you do me like you do me
TTITLE3=The way she loves a man
TTITLE4=New way to love
TTITLE5=African hunch with a boogie beat
TTITLE6=Shame pretty girls
TTITLE7=Baby-baby-baby
TTITLE8=Do de do
TTITLE9=Cold blooded
TTITLE10=Just you and I
TTITLE11=Pigalle love
TTITLE12=All by myself
EXTD=Memphis Slim p, voc - Willie Dixon voc, b - Philippe Combelle dr;
EXTT0=
EXTT1=
EXTT2=
EXTT3=
EXTT4=
EXTT5=
EXTT6=
EXTT7=
EXTT8=
EXTT9=
EXTT10=
EXTT11=
EXTT12=
PLAYORDER=
